<mxfile host="Electron" agent="Mozilla/5.0 (Windows NT 10.0; Win64; x64) AppleWebKit/537.36 (KHTML, like Gecko) draw.io/27.0.5 Chrome/134.0.6998.205 Electron/35.3.0 Safari/537.36" version="27.0.5">
  <diagram name="PÃ¡gina-1" id="sDp3yGPeqPRQx8tdcY76">
    <mxGraphModel dx="1371" dy="1993" grid="1" gridSize="10" guides="1" tooltips="1" connect="1" arrows="1" fold="1" page="1" pageScale="1" pageWidth="827" pageHeight="1169" math="0" shadow="0">
      <root>
        <mxCell id="0" />
        <mxCell id="1" parent="0" />
        <mxCell id="pHyGb0GAhDv8mFlpV88e-1" value="CLIENTE" style="rounded=1;whiteSpace=wrap;html=1;absoluteArcSize=1;arcSize=14;strokeWidth=2;" vertex="1" parent="1">
          <mxGeometry x="30" y="55" width="130" height="50" as="geometry" />
        </mxCell>
        <mxCell id="pHyGb0GAhDv8mFlpV88e-2" value="2.0 CONSULTAR&amp;nbsp;&lt;div&gt;REPORTES&lt;/div&gt;" style="strokeWidth=2;html=1;shape=mxgraph.flowchart.start_2;whiteSpace=wrap;" vertex="1" parent="1">
          <mxGeometry x="65" y="210" width="100" height="100" as="geometry" />
        </mxCell>
        <mxCell id="pHyGb0GAhDv8mFlpV88e-3" style="edgeStyle=orthogonalEdgeStyle;rounded=0;orthogonalLoop=1;jettySize=auto;html=1;exitX=1;exitY=0.5;exitDx=0;exitDy=0;exitPerimeter=0;entryX=0;entryY=0.5;entryDx=0;entryDy=0;" edge="1" parent="1" source="pHyGb0GAhDv8mFlpV88e-12" target="pHyGb0GAhDv8mFlpV88e-6">
          <mxGeometry relative="1" as="geometry" />
        </mxCell>
        <mxCell id="pHyGb0GAhDv8mFlpV88e-4" value="1.0 CREAR REPORTE" style="strokeWidth=2;html=1;shape=mxgraph.flowchart.start_2;whiteSpace=wrap;" vertex="1" parent="1">
          <mxGeometry x="367" y="30" width="100" height="100" as="geometry" />
        </mxCell>
        <mxCell id="pHyGb0GAhDv8mFlpV88e-5" style="edgeStyle=orthogonalEdgeStyle;rounded=0;orthogonalLoop=1;jettySize=auto;html=1;exitX=1;exitY=0.5;exitDx=0;exitDy=0;entryX=0;entryY=0.5;entryDx=0;entryDy=0;entryPerimeter=0;" edge="1" parent="1" source="pHyGb0GAhDv8mFlpV88e-1" target="pHyGb0GAhDv8mFlpV88e-4">
          <mxGeometry relative="1" as="geometry" />
        </mxCell>
        <mxCell id="pHyGb0GAhDv8mFlpV88e-6" value="DOCTOR" style="rounded=1;whiteSpace=wrap;html=1;absoluteArcSize=1;arcSize=14;strokeWidth=2;" vertex="1" parent="1">
          <mxGeometry x="745" y="55" width="130" height="50" as="geometry" />
        </mxCell>
        <mxCell id="pHyGb0GAhDv8mFlpV88e-7" style="edgeStyle=orthogonalEdgeStyle;rounded=0;orthogonalLoop=1;jettySize=auto;html=1;exitX=0.5;exitY=1;exitDx=0;exitDy=0;exitPerimeter=0;entryX=0.5;entryY=0;entryDx=0;entryDy=0;entryPerimeter=0;" edge="1" parent="1" source="pHyGb0GAhDv8mFlpV88e-9" target="pHyGb0GAhDv8mFlpV88e-2">
          <mxGeometry relative="1" as="geometry" />
        </mxCell>
        <mxCell id="pHyGb0GAhDv8mFlpV88e-8" value="" style="edgeStyle=orthogonalEdgeStyle;rounded=0;orthogonalLoop=1;jettySize=auto;html=1;exitX=0.25;exitY=1;exitDx=0;exitDy=0;entryX=1;entryY=0.5;entryDx=0;entryDy=0;" edge="1" parent="1" source="pHyGb0GAhDv8mFlpV88e-6" target="pHyGb0GAhDv8mFlpV88e-9">
          <mxGeometry relative="1" as="geometry">
            <mxPoint x="440" y="130" as="sourcePoint" />
            <mxPoint x="115" y="170" as="targetPoint" />
            <Array as="points">
              <mxPoint x="778" y="125" />
              <mxPoint x="543" y="125" />
              <mxPoint x="543" y="150" />
              <mxPoint x="370" y="150" />
              <mxPoint x="370" y="145" />
            </Array>
          </mxGeometry>
        </mxCell>
        <mxCell id="pHyGb0GAhDv8mFlpV88e-9" value="DATOS DEL REPORTE" style="text;html=1;align=center;verticalAlign=middle;whiteSpace=wrap;rounded=0;" vertex="1" parent="1">
          <mxGeometry x="190" y="130" width="150" height="30" as="geometry" />
        </mxCell>
        <mxCell id="pHyGb0GAhDv8mFlpV88e-30" style="edgeStyle=orthogonalEdgeStyle;rounded=0;orthogonalLoop=1;jettySize=auto;html=1;exitX=1;exitY=0.5;exitDx=0;exitDy=0;exitPerimeter=0;entryX=0;entryY=0.5;entryDx=0;entryDy=0;" edge="1" parent="1" source="pHyGb0GAhDv8mFlpV88e-10" target="pHyGb0GAhDv8mFlpV88e-26">
          <mxGeometry relative="1" as="geometry" />
        </mxCell>
        <mxCell id="pHyGb0GAhDv8mFlpV88e-10" value="3.0 RESPUESTA&amp;nbsp;&lt;div&gt;SOLUCION&lt;/div&gt;" style="strokeWidth=2;html=1;shape=mxgraph.flowchart.start_2;whiteSpace=wrap;" vertex="1" parent="1">
          <mxGeometry x="745" y="210" width="100" height="100" as="geometry" />
        </mxCell>
        <mxCell id="pHyGb0GAhDv8mFlpV88e-11" value="" style="edgeStyle=orthogonalEdgeStyle;rounded=0;orthogonalLoop=1;jettySize=auto;html=1;exitX=1;exitY=0.5;exitDx=0;exitDy=0;exitPerimeter=0;entryX=0;entryY=0.5;entryDx=0;entryDy=0;" edge="1" parent="1" source="pHyGb0GAhDv8mFlpV88e-4" target="pHyGb0GAhDv8mFlpV88e-12">
          <mxGeometry relative="1" as="geometry">
            <mxPoint x="490" y="80" as="sourcePoint" />
            <mxPoint x="640" y="80" as="targetPoint" />
          </mxGeometry>
        </mxCell>
        <mxCell id="pHyGb0GAhDv8mFlpV88e-12" value="DATOS REPORTE" style="text;html=1;align=center;verticalAlign=middle;whiteSpace=wrap;rounded=0;" vertex="1" parent="1">
          <mxGeometry x="530" y="65" width="130" height="30" as="geometry" />
        </mxCell>
        <mxCell id="pHyGb0GAhDv8mFlpV88e-13" style="edgeStyle=orthogonalEdgeStyle;rounded=0;orthogonalLoop=1;jettySize=auto;html=1;exitX=0.5;exitY=1;exitDx=0;exitDy=0;entryX=0.5;entryY=0;entryDx=0;entryDy=0;entryPerimeter=0;" edge="1" parent="1" source="pHyGb0GAhDv8mFlpV88e-6" target="pHyGb0GAhDv8mFlpV88e-10">
          <mxGeometry relative="1" as="geometry" />
        </mxCell>
        <mxCell id="pHyGb0GAhDv8mFlpV88e-14" style="edgeStyle=orthogonalEdgeStyle;rounded=0;orthogonalLoop=1;jettySize=auto;html=1;exitX=1;exitY=0.5;exitDx=0;exitDy=0;exitPerimeter=0;entryX=0;entryY=0.5;entryDx=0;entryDy=0;entryPerimeter=0;" edge="1" parent="1" source="pHyGb0GAhDv8mFlpV88e-16" target="pHyGb0GAhDv8mFlpV88e-10">
          <mxGeometry relative="1" as="geometry" />
        </mxCell>
        <mxCell id="pHyGb0GAhDv8mFlpV88e-15" value="" style="edgeStyle=orthogonalEdgeStyle;rounded=0;orthogonalLoop=1;jettySize=auto;html=1;exitX=1;exitY=0.5;exitDx=0;exitDy=0;exitPerimeter=0;entryX=0;entryY=0.5;entryDx=0;entryDy=0;entryPerimeter=0;" edge="1" parent="1" source="pHyGb0GAhDv8mFlpV88e-2" target="pHyGb0GAhDv8mFlpV88e-16">
          <mxGeometry relative="1" as="geometry">
            <mxPoint x="165" y="260" as="sourcePoint" />
            <mxPoint x="745" y="260" as="targetPoint" />
          </mxGeometry>
        </mxCell>
        <mxCell id="pHyGb0GAhDv8mFlpV88e-16" value="REPORTE GENERADO" style="text;html=1;align=center;verticalAlign=middle;whiteSpace=wrap;rounded=0;" vertex="1" parent="1">
          <mxGeometry x="430" y="245" width="150" height="30" as="geometry" />
        </mxCell>
        <mxCell id="pHyGb0GAhDv8mFlpV88e-17" style="edgeStyle=orthogonalEdgeStyle;rounded=0;orthogonalLoop=1;jettySize=auto;html=1;exitX=0.5;exitY=0;exitDx=0;exitDy=0;" edge="1" parent="1" source="pHyGb0GAhDv8mFlpV88e-18">
          <mxGeometry relative="1" as="geometry">
            <mxPoint x="795" y="320" as="targetPoint" />
          </mxGeometry>
        </mxCell>
        <mxCell id="pHyGb0GAhDv8mFlpV88e-31" style="edgeStyle=orthogonalEdgeStyle;rounded=0;orthogonalLoop=1;jettySize=auto;html=1;exitX=1;exitY=0.5;exitDx=0;exitDy=0;" edge="1" parent="1" source="pHyGb0GAhDv8mFlpV88e-18">
          <mxGeometry relative="1" as="geometry">
            <mxPoint x="920" y="435" as="targetPoint" />
          </mxGeometry>
        </mxCell>
        <mxCell id="pHyGb0GAhDv8mFlpV88e-18" value="ALMACEN" style="rounded=1;whiteSpace=wrap;html=1;absoluteArcSize=1;arcSize=14;strokeWidth=2;" vertex="1" parent="1">
          <mxGeometry x="730" y="410" width="130" height="50" as="geometry" />
        </mxCell>
        <mxCell id="pHyGb0GAhDv8mFlpV88e-19" style="edgeStyle=orthogonalEdgeStyle;rounded=0;orthogonalLoop=1;jettySize=auto;html=1;exitX=1;exitY=0.5;exitDx=0;exitDy=0;exitPerimeter=0;entryX=0.855;entryY=0.145;entryDx=0;entryDy=0;entryPerimeter=0;" edge="1" parent="1" source="pHyGb0GAhDv8mFlpV88e-10" target="pHyGb0GAhDv8mFlpV88e-4">
          <mxGeometry relative="1" as="geometry">
            <Array as="points">
              <mxPoint x="845" y="240" />
              <mxPoint x="930" y="240" />
              <mxPoint x="930" y="30" />
              <mxPoint x="450" y="30" />
              <mxPoint x="450" y="45" />
            </Array>
          </mxGeometry>
        </mxCell>
        <mxCell id="pHyGb0GAhDv8mFlpV88e-20" value="1.1 EL REPORTE DEBE CONTENER&lt;div&gt;EL MOTIVO DE LA INCIDENCIA(SE VA A CATEGORIZAR BAJO , IMPORTANTE, CRITICO,URGENTE)&lt;/div&gt;&lt;div&gt;VA A TENER UN NOMBRE ,APELLIDOS CORREO, TELEFONO Y DESCRIPCION Y CON UN CONTADOR DE CARACTERES&lt;/div&gt;&lt;div&gt;&lt;div&gt;&lt;br&gt;&lt;/div&gt;&lt;/div&gt;" style="text;html=1;align=center;verticalAlign=middle;whiteSpace=wrap;rounded=0;" vertex="1" parent="1">
          <mxGeometry x="320" y="-270" width="210" height="150" as="geometry" />
        </mxCell>
        <mxCell id="pHyGb0GAhDv8mFlpV88e-24" style="edgeStyle=orthogonalEdgeStyle;rounded=0;orthogonalLoop=1;jettySize=auto;html=1;exitX=0.5;exitY=1;exitDx=0;exitDy=0;entryX=0.5;entryY=0;entryDx=0;entryDy=0;entryPerimeter=0;" edge="1" parent="1" source="pHyGb0GAhDv8mFlpV88e-20" target="pHyGb0GAhDv8mFlpV88e-4">
          <mxGeometry relative="1" as="geometry" />
        </mxCell>
        <mxCell id="pHyGb0GAhDv8mFlpV88e-26" value="3.1 SE ENVIAN POR CORREO Y CHAT LA SOLUCION A LA INCIDENCIA" style="text;html=1;align=center;verticalAlign=middle;whiteSpace=wrap;rounded=0;" vertex="1" parent="1">
          <mxGeometry x="1040" y="225" width="170" height="70" as="geometry" />
        </mxCell>
        <mxCell id="pHyGb0GAhDv8mFlpV88e-29" value="&lt;br&gt;&lt;font&gt;&lt;span style=&quot;color: rgb(255, 255, 255); font-family: Helvetica; font-style: normal; font-variant-ligatures: normal; font-variant-caps: normal; font-weight: 400; letter-spacing: normal; orphans: 2; text-align: center; text-indent: 0px; text-transform: none; widows: 2; word-spacing: 0px; -webkit-text-stroke-width: 0px; white-space: normal; background-color: rgb(27, 29, 30); text-decoration-thickness: initial; text-decoration-style: initial; text-decoration-color: initial; float: none; display: inline !important;&quot;&gt;SOLO SE REPORTA MEDICAMENTO CON FALTA DE EXISTENCIA A PARTIR DE 10 PZAS., EL REPORTE SE GENERARA SOLO.&lt;/span&gt;&lt;br&gt;&lt;/font&gt;" style="text;html=1;align=center;verticalAlign=middle;whiteSpace=wrap;rounded=0;" vertex="1" parent="1">
          <mxGeometry x="930" y="380" width="180" height="100" as="geometry" />
        </mxCell>
      </root>
    </mxGraphModel>
  </diagram>
</mxfile>
